<svg width="159" height="33" viewBox="0 0 159 33" fill="none" xmlns="http://www.w3.org/2000/svg">
<path d="M20.7769 7.67526V4.08399H12.9182V12.5024H4.49982V19.8069H12.3363C14.7305 19.8069 19.336 19.1585 23.221 14.4754C22.495 17.4958 19.0312 23.4868 10.9674 23.6753C10.9286 23.6863 10.8898 23.6863 10.8566 23.6863H0.620361V8.62296H9.03879V0.204529H24.6564V7.67526H20.7769Z" fill="#1A76D1"/>
<path d="M12.9205 24.7337L12.9205 28.325L20.7791 28.325L20.7791 19.9066L29.1976 19.9066L29.1976 12.6021L21.3611 12.6021C18.9669 12.6021 14.3614 13.2505 10.4764 17.9336C11.2024 14.9132 14.6662 8.92217 22.73 8.73374C22.7688 8.72266 22.8075 8.72266 22.8408 8.72266L33.077 8.72266L33.077 23.786L24.6586 23.786L24.6586 32.2045L9.04101 32.2045L9.04101 24.7337L12.9205 24.7337Z" fill="#1A76D1"/>
<path d="M133.069 29.1081L127.037 21.1319V29.1081H122.39V4.71822H127.037V18.4293L133.036 10.8486H138.54L130.86 19.9454L138.738 29.1081H133.069Z" fill="#2C2D3F"/>
<path d="M140.137 5.60812C140.137 4.86104 140.4 4.25679 140.928 3.79536C141.455 3.31195 142.147 3.07025 143.004 3.07025C143.861 3.07025 144.553 3.31195 145.081 3.79536C145.608 4.25679 145.872 4.86104 145.872 5.60812C145.872 6.33322 145.608 6.93748 145.081 7.42088C144.553 7.88231 143.861 8.11302 143.004 8.11302C142.147 8.11302 141.455 7.88231 140.928 7.42088C140.4 6.93748 140.137 6.33322 140.137 5.60812ZM145.311 10.8486V29.1081H140.664V10.8486H145.311Z" fill="#2C2D3F"/>
<path d="M158.942 25.12V29.1081H156.503C154.459 29.1081 152.888 28.6137 151.79 27.6249C150.713 26.6362 150.175 24.9882 150.175 22.681V14.7708H147.637V10.8486H150.175V6.33322H154.822V10.8486H158.909V14.7708H154.822V22.747C154.822 23.6259 154.998 24.2411 155.349 24.5927C155.701 24.9442 156.294 25.12 157.129 25.12H158.942Z" fill="#2C2D3F"/>
<path d="M67.9048 6.10251V29.1081H63.2905V13.0569L57.3908 29.1081H53.3697L47.47 13.1228V29.1081H42.8228V6.10251H48.4588L55.4462 23.4061L62.3017 6.10251H67.9048Z" fill="#1A76D1"/>
<path d="M88.955 19.2862C88.955 19.7477 88.9 20.275 88.7902 20.8683H75.4087C75.4746 22.4943 75.9141 23.6918 76.7271 24.4608C77.5401 25.2299 78.5508 25.6144 79.7593 25.6144C80.836 25.6144 81.7259 25.3507 82.429 24.8234C83.1541 24.296 83.6155 23.5819 83.8133 22.681H88.7242C88.4825 23.9555 87.9662 25.0981 87.1752 26.1088C86.3841 27.1196 85.3624 27.9106 84.1099 28.4819C82.8795 29.0532 81.5062 29.3388 79.99 29.3388C78.2102 29.3388 76.6282 28.9653 75.2439 28.2182C73.8596 27.4492 72.7829 26.3615 72.0139 24.9552C71.2448 23.549 70.8603 21.89 70.8603 19.9784C70.8603 18.0667 71.2448 16.4078 72.0139 15.0015C72.7829 13.5733 73.8596 12.4856 75.2439 11.7385C76.6282 10.9915 78.2102 10.6179 79.99 10.6179C81.7918 10.6179 83.3629 10.9915 84.7032 11.7385C86.0655 12.4856 87.1092 13.5183 87.8343 14.8367C88.5814 16.1331 88.955 17.6163 88.955 19.2862ZM84.2747 18.8248C84.3407 17.3306 83.9451 16.199 83.0882 15.43C82.2532 14.6609 81.2205 14.2764 79.99 14.2764C78.7376 14.2764 77.6829 14.6609 76.8259 15.43C75.969 16.199 75.4966 17.3306 75.4087 18.8248H84.2747Z" fill="#1A76D1"/>
<path d="M99.0766 10.6179C100.615 10.6179 101.922 10.9805 102.999 11.7056C104.097 12.4307 104.888 13.4085 105.372 14.639V4.71822H109.986V29.1081H105.372V25.2848C104.888 26.5153 104.097 27.5041 102.999 28.2512C101.922 28.9763 100.615 29.3388 99.0766 29.3388C97.5385 29.3388 96.1542 28.9653 94.9237 28.2182C93.6932 27.4711 92.7264 26.3945 92.0233 24.9882C91.3421 23.56 91.0015 21.89 91.0015 19.9784C91.0015 18.0667 91.3421 16.4078 92.0233 15.0015C92.7264 13.5733 93.6932 12.4856 94.9237 11.7385C96.1542 10.9915 97.5385 10.6179 99.0766 10.6179ZM100.527 14.6719C99.0766 14.6719 97.912 15.1443 97.0331 16.0892C96.1542 17.034 95.7147 18.3304 95.7147 19.9784C95.7147 21.6263 96.1542 22.9227 97.0331 23.8676C97.912 24.7904 99.0766 25.2519 100.527 25.2519C101.933 25.2519 103.087 24.7794 103.987 23.8346C104.91 22.8678 105.372 21.5824 105.372 19.9784C105.372 18.3524 104.91 17.067 103.987 16.1221C103.087 15.1553 101.933 14.6719 100.527 14.6719Z" fill="#1A76D1"/>
<path d="M113.341 5.60812C113.341 4.86104 113.604 4.25679 114.132 3.79536C114.659 3.31195 115.351 3.07025 116.208 3.07025C117.065 3.07025 117.757 3.31195 118.285 3.79536C118.812 4.25679 119.076 4.86104 119.076 5.60812C119.076 6.33322 118.812 6.93748 118.285 7.42088C117.757 7.88231 117.065 8.11302 116.208 8.11302C115.351 8.11302 114.659 7.88231 114.132 7.42088C113.604 6.93748 113.341 6.33322 113.341 5.60812ZM118.515 10.8486V29.1081H113.868V10.8486H118.515Z" fill="#1A76D1"/>
</svg>
